<svg width="366" height="89" viewBox="0 0 366 89" fill="none" xmlns="http://www.w3.org/2000/svg">
<path d="M24.31 21.15C25.5567 20.4167 26.6567 20.325 27.61 20.875C28.5633 21.425 29.04 22.4333 29.04 23.9V53.6C29.04 54.59 28.82 55.635 28.38 56.735C27.94 57.7983 27.3533 58.8067 26.62 59.76C25.9233 60.6767 25.1533 61.3733 24.31 61.85L16.665 66.25C15.4183 66.9833 14.3183 67.075 13.365 66.525C12.4117 65.975 11.935 64.9667 11.935 63.5L24.31 56.35V26.65L11.935 33.8V69L7.15 71.75V31.05L24.31 21.15ZM24.31 26.65V56.35L19.525 53.6V23.9L24.31 26.65ZM24.31 56.35L11.935 63.5L7.15 60.75L19.525 53.6L24.31 56.35ZM11.935 63.5C11.935 64.9667 12.4117 65.975 13.365 66.525L8.58 63.775C7.62667 63.225 7.15 62.2167 7.15 60.75L11.935 63.5ZM27.61 20.875C26.6567 20.325 25.5567 20.4167 24.31 21.15L7.15 31.05L2.365 28.3L19.525 18.4C20.7717 17.6667 21.89 17.575 22.88 18.125L27.61 20.875ZM7.15 31.05V71.75L2.365 69V28.3L7.15 31.05ZM38.6246 38.75C38.6246 37.76 38.8446 36.7333 39.2846 35.67C39.7246 34.57 40.3113 33.5617 41.0446 32.645C41.7779 31.6917 42.5663 30.9767 43.4096 30.5L60.0746 20.875V26.375L43.4096 36V48.1L60.0746 38.475V43.975L43.4096 53.6V65.7L60.0746 56.075V61.575L43.4096 71.2C42.1263 71.9333 41.0079 72.025 40.0546 71.475C39.1013 70.925 38.6246 69.9167 38.6246 68.45V38.75ZM60.0746 56.075L43.4096 65.7L38.6246 62.95L55.2896 53.325L60.0746 56.075ZM60.0746 38.475L43.4096 48.1L38.6246 45.35L55.2896 35.725L60.0746 38.475ZM60.0746 20.875L43.4096 30.5C42.5663 30.9767 41.7779 31.6917 41.0446 32.645C40.3113 33.5617 39.7246 34.57 39.2846 35.67C38.8446 36.7333 38.6246 37.76 38.6246 38.75V68.45C38.6246 69.9167 39.1013 70.925 40.0546 71.475L35.2696 68.725C34.3163 68.175 33.8396 67.1667 33.8396 65.7V36C33.8396 35.01 34.0596 33.9833 34.4996 32.92C34.9396 31.82 35.5263 30.8117 36.2596 29.895C36.9929 28.9417 37.7813 28.2267 38.6246 27.75L55.2896 18.125L60.0746 20.875ZM81.4958 26.375C82.7792 25.6417 83.8975 25.55 84.8508 26.1C85.8042 26.65 86.2808 27.6583 86.2808 29.125V56.625L93.4308 52.5V19.5L98.2158 16.75V55.25L86.2808 62.125C85.0342 62.8583 83.9158 62.95 82.9258 62.4C81.9725 61.85 81.4958 60.8417 81.4958 59.375V31.875L74.4008 36V69L69.6158 71.75V33.25L81.4958 26.375ZM98.2158 16.75L93.4308 19.5L88.6458 16.75L93.4308 14L98.2158 16.75ZM93.4308 19.5V52.5L88.6458 49.75V16.75L93.4308 19.5ZM93.4308 52.5L86.2808 56.625L81.4958 53.875L88.6458 49.75L93.4308 52.5ZM81.4958 31.875V59.375C81.4958 60.8417 81.9725 61.85 82.9258 62.4L78.1958 59.65C77.2425 59.1 76.7658 58.0917 76.7658 56.625V29.125L81.4958 31.875ZM84.8508 26.1C83.8975 25.55 82.7792 25.6417 81.4958 26.375L69.6158 33.25L64.8308 30.5L76.7658 23.625C78.0125 22.8917 79.1125 22.8 80.0658 23.35L84.8508 26.1ZM69.6158 33.25V71.75L64.8308 69V30.5L69.6158 33.25ZM116.331 61.3V33.8L107.751 38.75V33.25L129.641 20.6V26.1L121.061 31.05V58.55L129.641 53.6V59.1L107.751 71.75V66.25L116.331 61.3ZM116.331 61.3L107.751 66.25L102.966 63.5L111.546 58.55L116.331 61.3ZM107.751 66.25V71.75L102.966 69V63.5L107.751 66.25ZM129.641 53.6L121.061 58.55L116.331 55.8L124.911 50.85L129.641 53.6ZM116.331 33.8V61.3L111.546 58.55V31.05L116.331 33.8ZM129.641 20.6L107.751 33.25L102.966 30.5L124.911 17.85L129.641 20.6ZM107.751 33.25V38.75L102.966 36V30.5L107.751 33.25Z" fill="white"/>
<path d="M155.941 52.4921C154.657 53.2258 153.538 53.3175 152.584 52.7672C151.63 52.2169 151.153 51.2081 151.153 49.7407V36.5344C151.153 35.5439 151.374 34.5168 151.814 33.4529C152.254 32.3524 152.841 31.3436 153.575 30.4265C154.308 29.4727 155.097 28.7573 155.941 28.2804L167.826 21.4021C169.074 20.6684 170.174 20.5767 171.128 21.127C172.119 21.6773 172.614 22.6861 172.614 24.1534V31.8571L167.826 34.6085V26.9048L155.941 33.7831V46.9894L167.826 40.1111C169.074 39.3774 170.174 39.2857 171.128 39.836C172.119 40.3862 172.614 41.3951 172.614 42.8624V56.0688C172.614 57.0226 172.375 58.0497 171.898 59.1503C171.458 60.2508 170.871 61.278 170.138 62.2317C169.441 63.1489 168.67 63.8459 167.826 64.3228L155.941 71.2011C154.657 71.9347 153.538 72.0265 152.584 71.4762C151.63 70.9259 151.153 69.9171 151.153 68.4497V62.9471L155.941 60.1958V65.6984L167.826 58.8201V45.6138L155.941 52.4921ZM167.826 45.6138V58.8201L163.039 56.0688V42.8624L167.826 45.6138ZM167.826 58.8201L155.941 65.6984L151.153 62.9471L163.039 56.0688L167.826 58.8201ZM167.826 26.9048V34.6085L163.039 31.8571V24.1534L167.826 26.9048ZM155.941 60.1958L151.153 62.9471L146.366 60.1958L151.153 57.4444L155.941 60.1958ZM151.153 62.9471V68.4497C151.153 69.9171 151.63 70.9259 152.584 71.4762L147.797 68.7249C146.843 68.1746 146.366 67.1658 146.366 65.6984V60.1958L151.153 62.9471ZM171.183 39.836C170.193 39.2857 169.074 39.3774 167.826 40.1111L155.941 46.9894L151.153 44.2381L163.039 37.3598C164.323 36.6261 165.442 36.5344 166.396 37.0847L171.183 39.836ZM171.183 21.127C170.193 20.5767 169.074 20.6684 167.826 21.4021L155.941 28.2804C155.097 28.7573 154.308 29.4727 153.575 30.4265C152.841 31.3436 152.254 32.3524 151.814 33.4529C151.374 34.5168 151.153 35.5439 151.153 36.5344V49.7407C151.153 51.2081 151.63 52.2169 152.584 52.7672L147.797 50.0159C146.843 49.4656 146.366 48.4568 146.366 46.9894V33.7831C146.366 32.7926 146.586 31.7654 147.026 30.7016C147.467 29.6011 148.054 28.5922 148.787 27.6751C149.521 26.7213 150.31 26.006 151.153 25.5291L163.039 18.6508C164.323 17.9171 165.442 17.8254 166.396 18.3757L171.183 21.127ZM190.744 33.7831L182.16 38.7355V33.2328L204.06 20.5767V26.0794L195.476 31.0317V69L190.744 71.7513V33.7831ZM190.744 33.7831V71.7513L185.956 69V31.0317L190.744 33.7831ZM204.06 20.5767L182.16 33.2328L177.372 30.4815L199.328 17.8254L204.06 20.5767ZM182.16 33.2328V38.7355L177.372 35.9841V30.4815L182.16 33.2328ZM227.582 51.1164L215.696 57.9947V69L210.909 71.7513V31.0317L227.582 21.4021C228.829 20.6684 229.93 20.5767 230.883 21.127C231.874 21.6773 232.369 22.6861 232.369 24.1534V37.3598C232.369 38.3136 232.131 39.3407 231.654 40.4413C231.213 41.5418 230.627 42.569 229.893 43.5228C229.196 44.4399 228.425 45.1369 227.582 45.6138C228.829 44.8801 229.93 44.7884 230.883 45.3386C231.874 45.8889 232.369 46.8977 232.369 48.3651V59.3704L227.582 62.1217V51.1164ZM227.582 45.6138V26.9048L215.696 33.7831V52.4921L227.582 45.6138ZM227.582 51.1164V62.1217L222.794 59.3704V48.3651L227.582 51.1164ZM230.938 45.3386C229.948 44.7884 228.829 44.8801 227.582 45.6138L222.794 42.8624C224.078 42.1287 225.197 42.037 226.151 42.5873L230.938 45.3386ZM227.582 26.9048V45.6138L222.794 42.8624V24.1534L227.582 26.9048ZM227.582 45.6138L215.696 52.4921L210.909 49.7407L222.794 42.8624L227.582 45.6138ZM230.938 21.127C229.948 20.5767 228.829 20.6684 227.582 21.4021L210.909 31.0317L206.121 28.2804L222.794 18.6508C224.078 17.9171 225.197 17.8254 226.151 18.3757L230.938 21.127ZM210.909 31.0317V71.7513L206.121 69V28.2804L210.909 31.0317ZM241.915 38.7355C241.915 37.745 242.135 36.7178 242.575 35.654C243.015 34.5534 243.602 33.5446 244.336 32.6275C245.07 31.6737 245.858 30.9584 246.702 30.4815L263.375 20.8519V26.3545L246.702 35.9841V48.0899L263.375 38.4603V43.963L246.702 53.5926V65.6984L263.375 56.0688V61.5714L246.702 71.2011C245.418 71.9347 244.299 72.0265 243.346 71.4762C242.392 70.9259 241.915 69.9171 241.915 68.4497V38.7355ZM263.375 56.0688L246.702 65.6984L241.915 62.9471L258.588 53.3175L263.375 56.0688ZM263.375 38.4603L246.702 48.0899L241.915 45.3386L258.588 35.709L263.375 38.4603ZM263.375 20.8519L246.702 30.4815C245.858 30.9584 245.07 31.6737 244.336 32.6275C243.602 33.5446 243.015 34.5534 242.575 35.654C242.135 36.7178 241.915 37.745 241.915 38.7355V68.4497C241.915 69.9171 242.392 70.9259 243.346 71.4762L238.558 68.7249C237.604 68.1746 237.128 67.1658 237.128 65.6984V35.9841C237.128 34.9937 237.348 33.9665 237.788 32.9026C238.228 31.8021 238.815 30.7933 239.549 29.8762C240.282 28.9224 241.071 28.2071 241.915 27.7302L258.588 18.1005L263.375 20.8519ZM277.708 28.2804L289.594 21.4021C290.841 20.6684 291.942 20.5767 292.896 21.127C293.886 21.6773 294.381 22.6861 294.381 24.1534V59.3704L289.594 62.1217V51.1164L277.708 57.9947V69L272.921 71.7513V36.5344C272.921 35.5439 273.141 34.5168 273.581 33.4529C274.021 32.3524 274.608 31.3436 275.342 30.4265C276.076 29.4727 276.865 28.7573 277.708 28.2804ZM289.594 45.6138V26.9048L277.708 33.7831V52.4921L289.594 45.6138ZM289.594 51.1164V62.1217L284.807 59.3704V48.3651L289.594 51.1164ZM289.594 26.9048V45.6138L284.807 42.8624V24.1534L289.594 26.9048ZM289.594 45.6138L277.708 52.4921L272.921 49.7407L284.807 42.8624L289.594 45.6138ZM292.951 21.127C291.96 20.5767 290.841 20.6684 289.594 21.4021L277.708 28.2804C276.865 28.7573 276.076 29.4727 275.342 30.4265C274.608 31.3436 274.021 32.3524 273.581 33.4529C273.141 34.5168 272.921 35.5439 272.921 36.5344V71.7513L268.134 69V33.7831C268.134 32.7926 268.354 31.7654 268.794 30.7016C269.234 29.6011 269.821 28.5922 270.555 27.6751C271.289 26.7213 272.077 26.006 272.921 25.5291L284.807 18.6508C286.091 17.9171 287.209 17.8254 288.163 18.3757L292.951 21.127ZM308.714 28.2804L327.754 17.2751C329.001 16.5414 330.101 16.4497 331.055 17C332.046 17.5503 332.541 18.5591 332.541 20.0265V55.2434L327.754 57.9947V22.7778L320.6 26.9048V62.1217L315.813 64.873V29.6561L308.714 33.7831V69L303.927 71.7513V36.5344C303.927 35.5439 304.147 34.5168 304.587 33.4529C305.028 32.3524 305.615 31.3436 306.348 30.4265C307.082 29.4727 307.871 28.7573 308.714 28.2804ZM327.754 22.7778V57.9947L322.966 55.2434V20.0265L327.754 22.7778ZM315.813 29.6561V64.873L311.081 62.1217V26.9048L315.813 29.6561ZM331.055 17C330.101 16.4497 329.001 16.5414 327.754 17.2751L308.714 28.2804C307.871 28.7573 307.082 29.4727 306.348 30.4265C305.615 31.3436 305.028 32.3524 304.587 33.4529C304.147 34.5168 303.927 35.5439 303.927 36.5344V71.7513L299.14 69V33.7831C299.14 32.7926 299.36 31.7654 299.8 30.7016C300.24 29.6011 300.827 28.5922 301.561 27.6751C302.295 26.7213 303.083 26.006 303.927 25.5291L322.966 14.5238C324.25 13.7901 325.369 13.6984 326.323 14.2487L331.055 17ZM346.867 52.4921C345.584 53.2258 344.465 53.3175 343.511 52.7672C342.557 52.2169 342.08 51.2081 342.08 49.7407V36.5344C342.08 35.5439 342.3 34.5168 342.74 33.4529C343.181 32.3524 343.768 31.3436 344.501 30.4265C345.235 29.4727 346.024 28.7573 346.867 28.2804L358.753 21.4021C360 20.6684 361.101 20.5767 362.055 21.127C363.045 21.6773 363.54 22.6861 363.54 24.1534V31.8571L358.753 34.6085V26.9048L346.867 33.7831V46.9894L358.753 40.1111C360 39.3774 361.101 39.2857 362.055 39.836C363.045 40.3862 363.54 41.3951 363.54 42.8624V56.0688C363.54 57.0226 363.302 58.0497 362.825 59.1503C362.385 60.2508 361.798 61.278 361.064 62.2317C360.367 63.1489 359.597 63.8459 358.753 64.3228L346.867 71.2011C345.584 71.9347 344.465 72.0265 343.511 71.4762C342.557 70.9259 342.08 69.9171 342.08 68.4497V62.9471L346.867 60.1958V65.6984L358.753 58.8201V45.6138L346.867 52.4921ZM358.753 45.6138V58.8201L353.966 56.0688V42.8624L358.753 45.6138ZM358.753 58.8201L346.867 65.6984L342.08 62.9471L353.966 56.0688L358.753 58.8201ZM358.753 26.9048V34.6085L353.966 31.8571V24.1534L358.753 26.9048ZM346.867 60.1958L342.08 62.9471L337.293 60.1958L342.08 57.4444L346.867 60.1958ZM342.08 62.9471V68.4497C342.08 69.9171 342.557 70.9259 343.511 71.4762L338.724 68.7249C337.77 68.1746 337.293 67.1658 337.293 65.6984V60.1958L342.08 62.9471ZM362.11 39.836C361.119 39.2857 360 39.3774 358.753 40.1111L346.867 46.9894L342.08 44.2381L353.966 37.3598C355.25 36.6261 356.369 36.5344 357.323 37.0847L362.11 39.836ZM362.11 21.127C361.119 20.5767 360 20.6684 358.753 21.4021L346.867 28.2804C346.024 28.7573 345.235 29.4727 344.501 30.4265C343.768 31.3436 343.181 32.3524 342.74 33.4529C342.3 34.5168 342.08 35.5439 342.08 36.5344V49.7407C342.08 51.2081 342.557 52.2169 343.511 52.7672L338.724 50.0159C337.77 49.4656 337.293 48.4568 337.293 46.9894V33.7831C337.293 32.7926 337.513 31.7654 337.953 30.7016C338.393 29.6011 338.98 28.5922 339.714 27.6751C340.448 26.7213 341.236 26.006 342.08 25.5291L353.966 18.6508C355.25 17.9171 356.369 17.8254 357.323 18.3757L362.11 21.127Z" fill="#FBFD82"/>
</svg>
