<svg width="22" height="16" viewBox="0 0 22 16" fill="none" xmlns="http://www.w3.org/2000/svg">
<g filter="url(#filter0_b_6_474)">
<rect width="22" height="16" rx="2" fill="#4D4D4D"/>
<path d="M8.108 10.348V11H4.968V10.348H6.168V6.74C6.168 6.612 6.172 6.48133 6.18 6.348L5.256 7.128C5.216 7.16 5.17467 7.18133 5.132 7.192C5.092 7.2 5.05333 7.2 5.016 7.192C4.98133 7.184 4.94933 7.172 4.92 7.156C4.89333 7.13733 4.872 7.11733 4.856 7.096L4.588 6.72L6.324 5.228H7.024V10.348H8.108ZM10.7926 10.352C10.966 10.352 11.1246 10.324 11.2686 10.268C11.4126 10.2093 11.5353 10.1293 11.6366 10.028C11.7406 9.92667 11.8206 9.80667 11.8766 9.668C11.9326 9.52933 11.9606 9.37867 11.9606 9.216C11.9606 9.04 11.9326 8.88267 11.8766 8.744C11.8233 8.60267 11.746 8.484 11.6446 8.388C11.546 8.292 11.426 8.21867 11.2846 8.168C11.146 8.11467 10.9926 8.088 10.8246 8.088C10.6513 8.088 10.494 8.11733 10.3526 8.176C10.214 8.23467 10.0953 8.31467 9.99663 8.416C9.89796 8.51733 9.82196 8.636 9.76863 8.772C9.71529 8.908 9.68863 9.052 9.68863 9.204C9.68863 9.37467 9.71263 9.53067 9.76063 9.672C9.80863 9.81333 9.87929 9.93467 9.97263 10.036C10.066 10.1347 10.1806 10.212 10.3166 10.268C10.4553 10.324 10.614 10.352 10.7926 10.352ZM10.4766 7.36C10.434 7.41333 10.3926 7.464 10.3526 7.512C10.3153 7.56 10.278 7.608 10.2406 7.656C10.3633 7.58667 10.498 7.532 10.6446 7.492C10.7913 7.452 10.9486 7.432 11.1166 7.432C11.3406 7.432 11.5553 7.46933 11.7606 7.544C11.966 7.616 12.146 7.72533 12.3006 7.872C12.458 8.016 12.5833 8.196 12.6766 8.412C12.77 8.62533 12.8166 8.872 12.8166 9.152C12.8166 9.41867 12.7673 9.668 12.6686 9.9C12.5726 10.132 12.4366 10.3347 12.2606 10.508C12.0846 10.6787 11.8726 10.8147 11.6246 10.916C11.3793 11.0147 11.1073 11.064 10.8086 11.064C10.51 11.064 10.2406 11.016 10.0006 10.92C9.76063 10.824 9.55529 10.6893 9.38463 10.516C9.21663 10.34 9.08729 10.1293 8.99663 9.884C8.90596 9.63867 8.86063 9.36533 8.86063 9.064C8.86063 8.80267 8.91663 8.52933 9.02863 8.244C9.14063 7.95867 9.31396 7.65867 9.54863 7.344L10.9646 5.444C11.0073 5.388 11.0686 5.34 11.1486 5.3C11.2313 5.26 11.3233 5.24 11.4246 5.24H12.1846L10.4766 7.36ZM17.2173 8.64H15.6293V10.316H14.9293V8.64H13.3493V7.992H14.9293V6.32H15.6293V7.992H17.2173V8.64Z" fill="#E0E0E0"/>
</g>
<defs>
<filter id="filter0_b_6_474" x="-4" y="-4" width="30" height="24" filterUnits="userSpaceOnUse" color-interpolation-filters="sRGB">
<feFlood flood-opacity="0" result="BackgroundImageFix"/>
<feGaussianBlur in="BackgroundImageFix" stdDeviation="2"/>
<feComposite in2="SourceAlpha" operator="in" result="effect1_backgroundBlur_6_474"/>
<feBlend mode="normal" in="SourceGraphic" in2="effect1_backgroundBlur_6_474" result="shape"/>
</filter>
</defs>
</svg>
