<svg width="12" height="13" viewBox="0 0 12 13" fill="none" xmlns="http://www.w3.org/2000/svg">
<path d="M2.79004 1.0927C2.71527 1.03946 2.6273 1.00783 2.53575 1.00128C2.4442 0.994721 2.35261 1.01349 2.27102 1.05552C2.18943 1.09756 2.12098 1.16124 2.07318 1.23959C2.02537 1.31794 2.00006 1.40794 2 1.49972V11.5003C2.00006 11.5921 2.02537 11.6821 2.07318 11.7604C2.12098 11.8388 2.18943 11.9024 2.27102 11.9445C2.35261 11.9865 2.4442 12.0053 2.53575 11.9987C2.6273 11.9922 2.71527 11.9605 2.79004 11.9073L9.79042 6.90702C9.85524 6.86077 9.90807 6.7997 9.94453 6.72891C9.98098 6.65811 10 6.57963 10 6.5C10 6.42037 9.98098 6.34189 9.94453 6.27109C9.90807 6.2003 9.85524 6.13923 9.79042 6.09298L2.79004 1.0927Z" fill="white"/>
</svg>
