<svg width="164" height="79" viewBox="0 0 164 79" fill="none" xmlns="http://www.w3.org/2000/svg">
<path d="M16.68 5.2C17.5866 4.66666 18.3866 4.6 19.08 5C19.7733 5.4 20.12 6.13333 20.12 7.2V28.8C20.12 29.52 19.96 30.28 19.64 31.08C19.32 31.8533 18.8933 32.5867 18.36 33.28C17.8533 33.9467 17.2933 34.4533 16.68 34.8L11.12 38C10.2133 38.5333 9.41331 38.6 8.71997 38.2C8.02664 37.8 7.67997 37.0667 7.67997 36L16.68 30.8V9.2L7.67997 14.4V40L4.19997 42V12.4L16.68 5.2ZM16.68 9.2V30.8L13.2 28.8V7.2L16.68 9.2ZM16.68 30.8L7.67997 36L4.19997 34L13.2 28.8L16.68 30.8ZM7.67997 36C7.67997 37.0667 8.02664 37.8 8.71997 38.2L5.23997 36.2C4.54664 35.8 4.19997 35.0667 4.19997 34L7.67997 36ZM19.08 5C18.3866 4.6 17.5866 4.66666 16.68 5.2L4.19997 12.4L0.719971 10.4L13.2 3.2C14.1066 2.66666 14.92 2.6 15.64 3L19.08 5ZM4.19997 12.4V42L0.719971 40V10.4L4.19997 12.4Z" fill="white"/>
<path d="M27.8906 18C27.8906 17.28 28.0506 16.5333 28.3706 15.76C28.6906 14.96 29.1173 14.2267 29.6506 13.56C30.1839 12.8667 30.7573 12.3467 31.3706 12L43.4906 5V9L31.3706 16V24.8L43.4906 17.8V21.8L31.3706 28.8V37.6L43.4906 30.6V34.6L31.3706 41.6C30.4373 42.1333 29.6239 42.2 28.9306 41.8C28.2373 41.4 27.8906 40.6667 27.8906 39.6V18ZM43.4906 30.6L31.3706 37.6L27.8906 35.6L40.0106 28.6L43.4906 30.6ZM43.4906 17.8L31.3706 24.8L27.8906 22.8L40.0106 15.8L43.4906 17.8ZM43.4906 5L31.3706 12C30.7573 12.3467 30.1839 12.8667 29.6506 13.56C29.1173 14.2267 28.6906 14.96 28.3706 15.76C28.0506 16.5333 27.8906 17.28 27.8906 18V39.6C27.8906 40.6667 28.2373 41.4 28.9306 41.8L25.4506 39.8C24.7573 39.4 24.4106 38.6667 24.4106 37.6V16C24.4106 15.28 24.5706 14.5333 24.8906 13.76C25.2106 12.96 25.6373 12.2267 26.1706 11.56C26.7039 10.8667 27.2773 10.3467 27.8906 10L40.0106 3L43.4906 5Z" fill="white"/>
<path d="M59.8697 9C60.803 8.46667 61.6163 8.4 62.3097 8.8C63.003 9.2 63.3497 9.93333 63.3497 11V31L68.5497 28V4L72.0297 2V30L63.3497 35C62.443 35.5333 61.6297 35.6 60.9097 35.2C60.2163 34.8 59.8697 34.0667 59.8697 33V13L54.7097 16V40L51.2297 42V14L59.8697 9ZM72.0297 2L68.5497 4L65.0697 2L68.5497 0L72.0297 2ZM68.5497 4V28L65.0697 26V2L68.5497 4ZM68.5497 28L63.3497 31L59.8697 29L65.0697 26L68.5497 28ZM59.8697 13V33C59.8697 34.0667 60.2163 34.8 60.9097 35.2L57.4697 33.2C56.7763 32.8 56.4297 32.0667 56.4297 31V11L59.8697 13ZM62.3097 8.8C61.6163 8.4 60.803 8.46667 59.8697 9L51.2297 14L47.7497 12L56.4297 7C57.3363 6.46667 58.1363 6.4 58.8297 6.8L62.3097 8.8ZM51.2297 14V42L47.7497 40V12L51.2297 14Z" fill="white"/>
<path d="M86.004 34.4V14.4L79.764 18V14L95.684 4.8V8.8L89.444 12.4V32.4L95.684 28.8V32.8L79.764 42V38L86.004 34.4ZM86.004 34.4L79.764 38L76.284 36L82.524 32.4L86.004 34.4ZM79.764 38V42L76.284 40V36L79.764 38ZM95.684 28.8L89.444 32.4L86.004 30.4L92.244 26.8L95.684 28.8ZM86.004 14.4V34.4L82.524 32.4V12.4L86.004 14.4ZM95.684 4.8L79.764 14L76.284 12L92.244 2.8L95.684 4.8ZM79.764 14V18L76.284 16V12L79.764 14Z" fill="white"/>
<path d="M7.67997 64C6.74664 64.5333 5.9333 64.6 5.23997 64.2C4.54664 63.8 4.19997 63.0667 4.19997 62V52.4C4.19997 51.68 4.35997 50.9333 4.67997 50.16C4.99997 49.36 5.42664 48.6267 5.95997 47.96C6.4933 47.2667 7.06664 46.7467 7.67997 46.4L16.32 41.4C17.2266 40.8667 18.0266 40.8 18.72 41.2C19.44 41.6 19.8 42.3333 19.8 43.4V49L16.32 51V45.4L7.67997 50.4V60L16.32 55C17.2266 54.4667 18.0266 54.4 18.72 54.8C19.44 55.2 19.8 55.9333 19.8 57V66.6C19.8 67.2933 19.6266 68.04 19.28 68.84C18.96 69.64 18.5333 70.3867 18 71.08C17.4933 71.7467 16.9333 72.2533 16.32 72.6L7.67997 77.6C6.74664 78.1333 5.9333 78.2 5.23997 77.8C4.54664 77.4 4.19997 76.6667 4.19997 75.6V71.6L7.67997 69.6V73.6L16.32 68.6V59L7.67997 64ZM16.32 59V68.6L12.84 66.6V57L16.32 59ZM16.32 68.6L7.67997 73.6L4.19997 71.6L12.84 66.6L16.32 68.6ZM16.32 45.4V51L12.84 49V43.4L16.32 45.4ZM7.67997 69.6L4.19997 71.6L0.719971 69.6L4.19997 67.6L7.67997 69.6ZM4.19997 71.6V75.6C4.19997 76.6667 4.54664 77.4 5.23997 77.8L1.75997 75.8C1.06664 75.4 0.719971 74.6667 0.719971 73.6V69.6L4.19997 71.6ZM18.76 54.8C18.04 54.4 17.2266 54.4667 16.32 55L7.67997 60L4.19997 58L12.84 53C13.7733 52.4667 14.5866 52.4 15.28 52.8L18.76 54.8ZM18.76 41.2C18.04 40.8 17.2266 40.8667 16.32 41.4L7.67997 46.4C7.06664 46.7467 6.4933 47.2667 5.95997 47.96C5.42664 48.6267 4.99997 49.36 4.67997 50.16C4.35997 50.9333 4.19997 51.68 4.19997 52.4V62C4.19997 63.0667 4.54664 63.8 5.23997 64.2L1.75997 62.2C1.06664 61.8 0.719971 61.0667 0.719971 60V50.4C0.719971 49.68 0.879971 48.9333 1.19997 48.16C1.51997 47.36 1.94664 46.6267 2.47997 45.96C3.0133 45.2667 3.58664 44.7467 4.19997 44.4L12.84 39.4C13.7733 38.8667 14.5866 38.8 15.28 39.2L18.76 41.2Z" fill="#FBFD82"/>
<path d="M33.779 50.4L27.539 54V50L43.459 40.8V44.8L37.219 48.4V76L33.779 78V50.4ZM33.779 50.4V78L30.299 76V48.4L33.779 50.4ZM43.459 40.8L27.539 50L24.059 48L40.019 38.8L43.459 40.8ZM27.539 50V54L24.059 52V48L27.539 50Z" fill="#FBFD82"/>
<path d="M61.3575 63L52.7175 68V76L49.2375 78V48.4L61.3575 41.4C62.2641 40.8667 63.0641 40.8 63.7575 41.2C64.4775 41.6 64.8375 42.3333 64.8375 43.4V53C64.8375 53.6933 64.6641 54.44 64.3175 55.24C63.9975 56.04 63.5708 56.7867 63.0375 57.48C62.5308 58.1467 61.9708 58.6533 61.3575 59C62.2641 58.4667 63.0641 58.4 63.7575 58.8C64.4775 59.2 64.8375 59.9333 64.8375 61V69L61.3575 71V63ZM61.3575 59V45.4L52.7175 50.4V64L61.3575 59ZM61.3575 63V71L57.8775 69V61L61.3575 63ZM63.7975 58.8C63.0775 58.4 62.2641 58.4667 61.3575 59L57.8775 57C58.8108 56.4667 59.6241 56.4 60.3175 56.8L63.7975 58.8ZM61.3575 45.4V59L57.8775 57V43.4L61.3575 45.4ZM61.3575 59L52.7175 64L49.2375 62L57.8775 57L61.3575 59ZM63.7975 41.2C63.0775 40.8 62.2641 40.8667 61.3575 41.4L49.2375 48.4L45.7575 46.4L57.8775 39.4C58.8108 38.8667 59.6241 38.8 60.3175 39.2L63.7975 41.2ZM49.2375 48.4V78L45.7575 76V46.4L49.2375 48.4Z" fill="#FBFD82"/>
<path d="M72.5765 54C72.5765 53.28 72.7365 52.5333 73.0565 51.76C73.3765 50.96 73.8032 50.2267 74.3365 49.56C74.8699 48.8667 75.4432 48.3467 76.0565 48L88.1765 41V45L76.0565 52V60.8L88.1765 53.8V57.8L76.0565 64.8V73.6L88.1765 66.6V70.6L76.0565 77.6C75.1232 78.1333 74.3099 78.2 73.6165 77.8C72.9232 77.4 72.5765 76.6667 72.5765 75.6V54ZM88.1765 66.6L76.0565 73.6L72.5765 71.6L84.6965 64.6L88.1765 66.6ZM88.1765 53.8L76.0565 60.8L72.5765 58.8L84.6965 51.8L88.1765 53.8ZM88.1765 41L76.0565 48C75.4432 48.3467 74.8699 48.8667 74.3365 49.56C73.8032 50.2267 73.3765 50.96 73.0565 51.76C72.7365 52.5333 72.5765 53.28 72.5765 54V75.6C72.5765 76.6667 72.9232 77.4 73.6165 77.8L70.1365 75.8C69.4432 75.4 69.0965 74.6667 69.0965 73.6V52C69.0965 51.28 69.2565 50.5333 69.5765 49.76C69.8965 48.96 70.3232 48.2267 70.8565 47.56C71.3899 46.8667 71.9632 46.3467 72.5765 46L84.6965 39L88.1765 41Z" fill="#FBFD82"/>
<path d="M99.3956 46.4L108.036 41.4C108.942 40.8667 109.742 40.8 110.436 41.2C111.156 41.6 111.516 42.3333 111.516 43.4V69L108.036 71V63L99.3956 68V76L95.9156 78V52.4C95.9156 51.68 96.0756 50.9333 96.3956 50.16C96.7156 49.36 97.1423 48.6267 97.6756 47.96C98.2089 47.2667 98.7823 46.7467 99.3956 46.4ZM108.036 59V45.4L99.3956 50.4V64L108.036 59ZM108.036 63V71L104.556 69V61L108.036 63ZM108.036 45.4V59L104.556 57V43.4L108.036 45.4ZM108.036 59L99.3956 64L95.9156 62L104.556 57L108.036 59ZM110.476 41.2C109.756 40.8 108.942 40.8667 108.036 41.4L99.3956 46.4C98.7823 46.7467 98.2089 47.2667 97.6756 47.96C97.1423 48.6267 96.7156 49.36 96.3956 50.16C96.0756 50.9333 95.9156 51.68 95.9156 52.4V78L92.4356 76V50.4C92.4356 49.68 92.5956 48.9333 92.9156 48.16C93.2356 47.36 93.6623 46.6267 94.1956 45.96C94.7289 45.2667 95.3023 44.7467 95.9156 44.4L104.556 39.4C105.489 38.8667 106.302 38.8 106.996 39.2L110.476 41.2Z" fill="#FBFD82"/>
<path d="M122.735 46.4L136.575 38.4C137.481 37.8667 138.281 37.8 138.975 38.2C139.695 38.6 140.055 39.3333 140.055 40.4V66L136.575 68V42.4L131.375 45.4V71L127.895 73V47.4L122.735 50.4V76L119.255 78V52.4C119.255 51.68 119.415 50.9333 119.735 50.16C120.055 49.36 120.481 48.6267 121.015 47.96C121.548 47.2667 122.121 46.7467 122.735 46.4ZM136.575 42.4V68L133.095 66V40.4L136.575 42.4ZM127.895 47.4V73L124.455 71V45.4L127.895 47.4ZM138.975 38.2C138.281 37.8 137.481 37.8667 136.575 38.4L122.735 46.4C122.121 46.7467 121.548 47.2667 121.015 47.96C120.481 48.6267 120.055 49.36 119.735 50.16C119.415 50.9333 119.255 51.68 119.255 52.4V78L115.775 76V50.4C115.775 49.68 115.935 48.9333 116.255 48.16C116.575 47.36 117.001 46.6267 117.535 45.96C118.068 45.2667 118.641 44.7467 119.255 44.4L133.095 36.4C134.028 35.8667 134.841 35.8 135.535 36.2L138.975 38.2Z" fill="#FBFD82"/>
<path d="M151.269 64C150.336 64.5333 149.522 64.6 148.829 64.2C148.136 63.8 147.789 63.0667 147.789 62V52.4C147.789 51.68 147.949 50.9333 148.269 50.16C148.589 49.36 149.016 48.6267 149.549 47.96C150.082 47.2667 150.656 46.7467 151.269 46.4L159.909 41.4C160.816 40.8667 161.616 40.8 162.309 41.2C163.029 41.6 163.389 42.3333 163.389 43.4V49L159.909 51V45.4L151.269 50.4V60L159.909 55C160.816 54.4667 161.616 54.4 162.309 54.8C163.029 55.2 163.389 55.9333 163.389 57V66.6C163.389 67.2933 163.216 68.04 162.869 68.84C162.549 69.64 162.122 70.3867 161.589 71.08C161.082 71.7467 160.522 72.2533 159.909 72.6L151.269 77.6C150.336 78.1333 149.522 78.2 148.829 77.8C148.136 77.4 147.789 76.6667 147.789 75.6V71.6L151.269 69.6V73.6L159.909 68.6V59L151.269 64ZM159.909 59V68.6L156.429 66.6V57L159.909 59ZM159.909 68.6L151.269 73.6L147.789 71.6L156.429 66.6L159.909 68.6ZM159.909 45.4V51L156.429 49V43.4L159.909 45.4ZM151.269 69.6L147.789 71.6L144.309 69.6L147.789 67.6L151.269 69.6ZM147.789 71.6V75.6C147.789 76.6667 148.136 77.4 148.829 77.8L145.349 75.8C144.656 75.4 144.309 74.6667 144.309 73.6V69.6L147.789 71.6ZM162.349 54.8C161.629 54.4 160.816 54.4667 159.909 55L151.269 60L147.789 58L156.429 53C157.362 52.4667 158.176 52.4 158.869 52.8L162.349 54.8ZM162.349 41.2C161.629 40.8 160.816 40.8667 159.909 41.4L151.269 46.4C150.656 46.7467 150.082 47.2667 149.549 47.96C149.016 48.6267 148.589 49.36 148.269 50.16C147.949 50.9333 147.789 51.68 147.789 52.4V62C147.789 63.0667 148.136 63.8 148.829 64.2L145.349 62.2C144.656 61.8 144.309 61.0667 144.309 60V50.4C144.309 49.68 144.469 48.9333 144.789 48.16C145.109 47.36 145.536 46.6267 146.069 45.96C146.602 45.2667 147.176 44.7467 147.789 44.4L156.429 39.4C157.362 38.8667 158.176 38.8 158.869 39.2L162.349 41.2Z" fill="#FBFD82"/>
</svg>
